<svg width="16" height="16" viewBox="0 0 16 16" fill="none" xmlns="http://www.w3.org/2000/svg">
<path d="M7.84061 15.8025C12.1448 15.8025 15.4925 12.3071 15.4925 8.01735C15.4925 3.72759 11.9854 0.391113 7.68119 0.391113C3.377 0.391113 0.0292969 3.88647 0.0292969 8.01735C0.0292969 12.3071 3.53642 15.8025 7.84061 15.8025ZM7.68119 3.56871C7.84061 3.56871 7.84061 3.56871 7.68119 3.56871C10.2318 3.56871 12.3042 5.63415 12.3042 8.17623C12.3042 10.7183 10.2318 12.6249 7.68119 12.6249C5.13056 12.6249 3.21759 10.5594 3.21759 8.17623C3.21759 5.63415 5.28997 3.56871 7.68119 3.56871Z" fill="#00A0C1"/>
</svg>
