<svg width="14" height="15" viewBox="0 0 14 15" fill="none" xmlns="http://www.w3.org/2000/svg">
<path d="M7.72463 14.1295C8.04346 14.1295 8.36229 14.1295 8.68112 13.9706V13.0174C8.68112 12.223 8.68112 11.4286 8.84053 10.793C8.52171 10.9519 8.04346 10.9519 7.72463 10.9519C5.65225 10.9519 3.89869 9.20424 3.89869 7.1388C3.89869 5.07336 5.65225 3.32568 7.72463 3.32568C9.31878 3.32568 10.7535 4.27896 11.3912 5.70888C12.0288 4.91448 12.9853 4.12008 13.7824 3.48456C11.71 0.148085 7.4058 -0.964074 4.0581 1.10136C0.710396 3.1668 -0.405505 7.45656 1.66688 10.793C2.9422 12.8585 5.174 14.1295 7.72463 14.1295Z" fill="#00A0C1"/>
</svg>
