<svg width="14" height="15" viewBox="0 0 14 15" fill="none" xmlns="http://www.w3.org/2000/svg">
<path d="M2.60876 5.70826C3.40583 3.8017 5.63764 2.84842 7.71003 3.64282C9.623 4.43722 10.5795 6.66154 9.78241 8.72697C9.14476 10.1569 7.71003 11.1102 6.27529 11.1102C5.95647 11.1102 5.47822 11.1102 5.15939 10.9513C5.31881 11.7457 5.31881 12.5401 5.31881 13.1756V14.1289C5.63764 14.1289 5.95647 14.2878 6.27529 14.2878C10.2607 14.2878 13.449 11.1102 13.449 7.29706C13.449 3.32506 10.2607 0.147461 6.43471 0.147461C3.88407 0.147461 1.65227 1.4185 0.376953 3.64282C1.17403 4.11946 1.9711 4.75498 2.60876 5.70826Z" fill="#00A0C1"/>
</svg>
